<svg xmlns="http://www.w3.org/2000/svg" viewBox="0 0 841.9 595.3">
  <g fill="#61DAFB">
    <path d="M666.3 296.5c0 15-1.5 30-4.3 44.7l106.2 61.1c12.5-34.2 19.7-70.7 19.7-105.8s-7.2-71.6-19.7-105.8l-106.2 61.1c2.8 14.7 4.3 29.8 4.3 44.7zM706.7 371.4c-5.5 12.3-12 24.5-19.6 36.2l93.5 53.9c16.9-26.2 30.1-54.7 38.2-84.7l-112.1-5.4zM725.8 213.4l112.1-5.4c-8.1-30-21.3-58.5-38.2-84.7l-93.5 53.9c7.6 11.7 14.1 23.9 19.6 36.2z"></path>
    <circle cx="420.9" cy="296.5" r="45.7"></circle>
    <path d="M520.5 78.1c-39-22.5-82-34.7-126-34.7s-87 12.2-126 34.7L198.4 21C256.7-7 331.1-7 396.2 21L520.5 78.1z"></path>
  </g>
</svg>
